<svg width="400" height="300" viewBox="0 0 400 300" fill="none" xmlns="http://www.w3.org/2000/svg">
  <rect width="400" height="300" fill="#FEF3C7"/>
  <rect x="20" y="20" width="360" height="260" rx="12" fill="white" stroke="#E2E8F0" stroke-width="2"/>
  
  <!-- Background Pattern -->
  <circle cx="60" cy="40" r="3" fill="#F59E0B" opacity="0.1"/>
  <circle cx="340" cy="60" r="2" fill="#3B82F6" opacity="0.1"/>
  <circle cx="40" y="190" r="4" fill="#8B5CF6" opacity="0.1"/>
  <circle cx="360" cy="210" r="2" fill="#10B981" opacity="0.1"/>
  
  <!-- Main Content -->
  <rect x="40" y="50" width="320" height="8" rx="4" fill="#F59E0B"/>
  <rect x="40" y="70" width="280" height="6" rx="3" fill="#6B7280"/>
  <rect x="40" y="90" width="300" height="6" rx="3" fill="#6B7280"/>
  <rect x="40" y="110" width="260" height="6" rx="3" fill="#6B7280"/>
  
  <!-- Icon -->
  <circle cx="100" cy="160" r="25" fill="#F59E0B" opacity="0.1"/>
  <path d="M90 150L100 160L110 150" stroke="#F59E0B" stroke-width="3" stroke-linecap="round" stroke-linejoin="round"/>
  <path d="M90 170L100 160L110 170" stroke="#F59E0B" stroke-width="3" stroke-linecap="round" stroke-linejoin="round"/>
  
  <!-- Text -->
  <text x="140" y="170" font-family="Arial, sans-serif" font-size="16" font-weight="bold" fill="#1F2937">Kariyer Gelişimi</text>
  
  <!-- Decorative Elements -->
  <rect x="40" y="200" width="90" height="4" rx="2" fill="#3B82F6"/>
  <rect x="140" y="200" width="70" height="4" rx="2" fill="#8B5CF6"/>
  <rect x="220" y="200" width="80" height="4" rx="2" fill="#10B981"/>
</svg>

